<svg width="20" height="20" viewBox="0 0 20 20" fill="none" xmlns="http://www.w3.org/2000/svg">
<path d="M10 0C15.5229 0 20 4.47715 20 10C20 15.5228 15.5229 20 10 20C4.4772 20 0 15.5228 0 10C0 4.47715 4.4772 0 10 0ZM9.7199 14.5307C9.9862 14.797 10.4028 14.8212 10.6964 14.6033L10.7805 14.5307L14.7814 10.5299C15.0477 10.2636 15.0718 9.8468 14.8539 9.5532L14.7813 9.4691L10.7797 5.46911C10.4868 5.17628 10.0119 5.17637 9.7191 5.46931C9.4529 5.73563 9.4287 6.1523 9.6466 6.44587L9.7193 6.52997L12.4412 9.2507L5.7495 9.2504C5.3698 9.2504 5.056 9.5325 5.0064 9.8986L4.9995 10.0004C4.9995 10.3801 5.2817 10.6939 5.6477 10.7435L5.7495 10.7504L12.4392 10.7507L9.7199 13.47C9.4536 13.7363 9.4294 14.153 9.6473 14.4466L9.7199 14.5307Z" fill="#826251"/>
</svg>
